<?xml version="1.0" encoding="UTF-8"?>
<svg id="Layer_1" xmlns="http://www.w3.org/2000/svg" viewBox="0 0 800 800">
  <defs>
    <style>
      .cls-1 {
        stroke-width: 10px;
      }

      .cls-1, .cls-2 {
        fill: none;
        stroke: #000;
        stroke-miterlimit: 10;
      }

      .cls-2 {
        stroke-width: 9px;
      }
    </style>
  </defs>
  <path class="cls-1" d="M395.17,146.46c45.41.31,84.41,10.9,131.48,44.49,52.53,37.48,80.58,116.28,80.58,116.28,0,0,11.86,37.1,38.25,32.51,26.39-4.59,10.33-48.58,10.33-48.58,0,0-28.26-83.52-100.98-137.31-80.37-59.45-149.95-58.09-160.73-57.48-1.09.06-2.16.09-3.25.09-13.69.03-102.41,2.41-172.11,57.39-71.02,56.02-100.98,137.31-100.98,137.31,0,0-16.06,43.99,10.33,48.58,26.39,4.59,38.25-32.51,38.25-32.51,0,0,28.05-78.79,80.58-116.28,44.93-32.06,100.72-44.82,148.25-44.49Z"/>
  <g>
    <path class="cls-2" d="M165.7,499.11s-31.36-32.13-34.42-78.03c-3.06-45.9,4.02-81.11,4.02-81.11"/>
    <path class="cls-1" d="M175.11,490.37l-17.61,26.42c-4.71,7.06-5.5,16.03-2.1,23.81l30.02,68.63c4.43,10.14,15.02,16.13,25.99,14.73l19.4-2.48c4.31-.55,6.87-5.09,5.12-9.07l-53.55-121.42c-1.33-3.01-5.46-3.37-7.28-.63Z"/>
    <path class="cls-1" d="M192.3,461.14l17.03-11.27c11.12-7.36,26.17-3.54,32.43,8.25l72.23,136.03c4.69,8.82,3.02,19.68-4.09,26.69l-17.64,17.39c-11.75,11.59-31.41,8.23-38.65-6.61l-69.15-141.72c-4.97-10.19-1.62-22.49,7.84-28.75Z"/>
  </g>
  <g>
    <path class="cls-2" d="M611.05,499.27s31.36-32.13,34.42-78.03c3.06-45.9-4.02-81.11-4.02-81.11"/>
    <path class="cls-1" d="M601.64,490.53l17.61,26.42c4.71,7.06,5.5,16.03,2.1,23.81l-30.02,68.63c-4.43,10.14-15.02,16.13-25.99,14.73l-19.4-2.48c-4.31-.55-6.87-5.09-5.12-9.07l53.55-121.42c1.33-3.01,5.46-3.37,7.28-.63Z"/>
    <path class="cls-1" d="M584.45,461.3l-17.03-11.27c-11.12-7.36-26.17-3.54-32.43,8.25l-72.23,136.03c-4.69,8.82-3.02,19.68,4.09,26.69l17.64,17.39c11.75,11.59,31.41,8.23,38.65-6.61l69.15-141.72c4.97-10.19,1.62-22.49-7.84-28.75Z"/>
  </g>
</svg>